<?xml version="1.0" encoding="UTF-8" standalone="no"?>
<svg width="52px" height="52px" viewBox="0 0 52 52" version="1.1" xmlns="http://www.w3.org/2000/svg" xmlns:xlink="http://www.w3.org/1999/xlink" xmlns:sketch="http://www.bohemiancoding.com/sketch/ns">
    <title>google_plus_social_circle</title>
    <description>Created with Sketch (http://www.bohemiancoding.com/sketch)</description>
    <defs/>
    <g id="Page-1" stroke="none" stroke-width="1" fill="none" fill-rule="evenodd" sketch:type="MSPage">
        <g id="G+" sketch:type="MSLayerGroup">
            <circle d="M26,52 C40.3594042,52 52,40.3594042 52,26 C52,11.6405958 40.3594042,0 26,0 C11.6405958,0 0,11.6405958 0,26 C0,40.3594042 11.6405958,52 26,52 Z M26,52" id="Button-Shape" fill="#000000" sketch:type="MSShapeGroup" cx="26" cy="26" r="26"/>
            <path d="M24.2339805,23.7187267 C25.0829563,22.8670402 25.1572282,21.6851964 25.1572282,21.0194605 C25.1572282,18.3594989 23.5682446,14.2195218 20.50033,14.2195218 C19.5394043,14.2195218 18.5047488,14.7003913 17.9127427,15.440399 C17.2846849,16.2164583 17.0992764,17.2131646 17.0992764,18.1743614 C17.0992764,20.6499988 18.5408005,24.7533821 21.7193097,24.7533821 C22.6433706,24.753111 23.6414322,24.3093775 24.2339805,23.7187267 L24.2339805,23.7187267 Z M23.1611049,30.7401256 C22.8653729,30.7024475 22.6805065,30.7024475 22.3115869,30.7024475 C21.978719,30.7024475 19.9825957,30.7767193 18.430477,31.2947247 C17.6175528,31.5904567 15.2522389,32.4765685 15.2522389,35.1010207 C15.2522389,37.7249307 17.8021481,39.6091041 21.7569877,39.6091041 C25.3052297,39.6091041 27.1896742,37.9097971 27.1896742,35.618755 C27.1896742,33.7332262 25.9704234,32.7362488 23.1611049,30.7401256 L23.1611049,30.7401256 Z M34,27 L30,27 L30,25 L34,25 L34,21 L36,21 L36,25 L40,25 L40,27 L36,27 L36,31 L34,31 L34,27 Z M25.785557,14.3301164 C26.635075,15.0327171 28.4094671,16.5105639 28.4094671,19.3201535 C28.4094671,22.0552002 26.8570773,23.3487228 25.3052297,24.5677025 C24.8249024,25.0483009 24.2697611,25.5660352 24.2697611,26.3792305 C24.2697611,27.1924257 24.8249024,27.6361593 25.2304157,27.968214 L26.5616164,29.0023273 C28.1882779,30.3695796 29.6658537,31.6270505 29.6658537,34.177773 C29.6658537,37.6509299 26.3024782,41.1625781 19.9454598,41.1625781 C14.5873162,41.1625781 12,38.6126688 12,35.87708 C12,34.5464215 12.6654648,32.661977 14.8467255,31.3679123 C17.1374966,29.963253 20.2428182,29.780013 21.9049893,29.6680631 C21.387526,29.0023273 20.7963331,28.2994555 20.7963331,27.1550187 C20.7963331,26.5266899 20.9811995,26.156415 21.1660659,25.7132236 C20.758655,25.7498173 20.3531417,25.7877665 19.9828668,25.7877665 C16.0659763,25.7877665 13.8483928,22.8667691 13.8483928,19.9848051 C13.8483928,18.2854981 14.6241811,16.3994272 16.2134357,15.0321749 C18.3204246,13.295732 20.8331979,13 22.8287791,13 L30.4419131,13 L28.0765991,14.3295742 L25.785557,14.3295742 L25.785557,14.3301164 Z M25.785557,14.3301164" id="Icon" fill="#FFFFFF" sketch:type="MSShapeGroup"/>
        </g>
    </g>
</svg>