<?xml version="1.0" encoding="UTF-8" standalone="no"?>
<svg width="52px" height="52px" viewBox="0 0 52 52" version="1.1" xmlns="http://www.w3.org/2000/svg" xmlns:xlink="http://www.w3.org/1999/xlink" xmlns:sketch="http://www.bohemiancoding.com/sketch/ns">
    <title>pinterest_social_circle</title>
    <description>Created with Sketch (http://www.bohemiancoding.com/sketch)</description>
    <defs/>
    <g id="Page-1" stroke="none" stroke-width="1" fill="none" fill-rule="evenodd" sketch:type="MSPage">
        <g id="Pinterest" sketch:type="MSLayerGroup">
            <circle d="M26,52 C40.3594042,52 52,40.3594042 52,26 C52,11.6405958 40.3594042,0 26,0 C11.6405958,0 0,11.6405958 0,26 C0,40.3594042 11.6405958,52 26,52 Z M26,52" id="Button-Shape" fill="#000000" sketch:type="MSShapeGroup" cx="26" cy="26" r="26"/>
            <path d="M28.3915263,33.8731476 C34.1163859,33.8731476 38,28.5454427 38,21.4138692 C38,16.0228478 33.5255232,11 26.7269015,11 C18.2662072,11 14,17.1925092 14,22.3563208 C14,25.4830611 15.1587545,28.2648178 17.6467586,29.3015927 C18.0543645,29.471479 18.4196018,29.3070645 18.5382848,28.846652 C18.6194487,28.5274639 18.8157223,27.7223283 18.9009699,27.3875065 C19.0204186,26.9315236 18.9744768,26.7717993 18.6452272,26.3741821 C17.928535,25.5096384 17.4711588,24.3926104 17.4711588,22.8086559 C17.4711588,18.2149533 20.8363961,14.1025081 26.2381317,14.1025081 C31.0188872,14.1025081 33.6475242,17.0846366 33.6475242,21.0691461 C33.6475242,26.3106051 31.3754467,30.7344215 28.0015314,30.7344215 C26.1378254,30.7344215 24.7445125,29.1616711 25.1906585,27.2329935 C25.7248596,24.9301492 26.7631445,22.4438695 26.7631445,20.7814859 C26.7631445,19.2941998 25.9808576,18.0521022 24.3611536,18.0521022 C22.4563553,18.0521022 20.9267483,20.0641596 20.9267483,22.7581069 C20.9267483,24.4739057 21.4956611,25.634708 21.4956611,25.634708 C21.4956611,25.634708 19.5464523,34.0646605 19.2041858,35.5404819 C18.8938234,36.8844591 18.8473711,38.3615834 18.8910158,39.6099344 C19.0214395,40.7298286 20.1061766,41.6417945 21.047218,40.4132461 C21.70878,39.333739 22.4201123,37.9704803 22.7881572,36.6040947 C23.007657,35.7955718 24.0413476,31.6073032 24.0413476,31.6073032 C24.6607963,32.8121404 26.4691169,33.8731476 28.3915263,33.8731476 Z M28.3915263,33.8731476" id="Icon" fill="#FFFFFF" sketch:type="MSShapeGroup"/>
        </g>
    </g>
</svg>