<?xml version="1.0" encoding="UTF-8" standalone="no"?>
<svg width="52px" height="52px" viewBox="0 0 52 52" version="1.1" xmlns="http://www.w3.org/2000/svg" xmlns:xlink="http://www.w3.org/1999/xlink" xmlns:sketch="http://www.bohemiancoding.com/sketch/ns">
    <title>twitter_social_circle</title>
    <description>Created with Sketch (http://www.bohemiancoding.com/sketch)</description>
    <defs>
        <linearGradient x1="50%" y1="0%" x2="50%" y2="100%" id="linearGradient-1" stop-color="#FFFFFF">
            <stop offset="0%"/>
            <stop stop-opacity="0.7" offset="80.200377%"/>
            <stop stop-opacity="0.9" offset="100%"/>
        </linearGradient>
    </defs>
    <g id="Page-1" stroke="none" stroke-width="1" fill="none" fill-rule="evenodd" sketch:type="MSPage">
        <g id="Twitter" sketch:type="MSLayerGroup">
            <circle d="M26,52 C40.3594042,52 52,40.3594042 52,26 C52,11.6405958 40.3594042,0 26,0 C11.6405958,0 0,11.6405958 0,26 C0,40.3594042 11.6405958,52 26,52 Z M26,52" id="Button-Shape" fill="#000000" sketch:type="MSShapeGroup" cx="26" cy="26" r="26"/>
            <path d="M35.57852,15.9784684 C34.53076,14.7872413 33.0378,14.0282689 31.38552,14.0007669 C28.21312,13.9479627 25.6409,16.6286669 25.6409,19.9880339 C25.6409,20.464809 25.69172,20.9297343 25.78972,21.3760501 C21.01544,21.0663722 16.78254,18.5802678 13.94936,14.8327589 C13.45488,15.7307468 13.17152,16.7802983 13.17152,17.904597 C13.17152,20.03299 14.18568,21.9219236 15.72708,23.0372284 C14.78544,22.9956566 13.89966,22.7105994 13.12518,22.2429584 C13.12462,22.268519 13.12462,22.2940856 13.12462,22.3201008 C13.12462,25.2924098 15.10478,27.7859466 17.73272,28.3668132 C17.2507,28.5033996 16.7432,28.5748808 16.21932,28.5714069 C15.84916,28.5689524 15.48922,28.5279036 15.13852,28.4541989 C15.86946,30.891794 17.99088,32.6705308 20.50472,32.7293442 C18.5387,34.3613368 16.06182,35.3333008 13.37032,35.3277487 C12.90664,35.3267922 12.4494,35.2968304 12,35.2391864 C14.54226,36.9835387 17.56178,37.9991483 20.80586,37.9999994 C31.37208,38.0027715 37.1503,28.8075761 37.1503,20.8318662 C37.1503,20.5701915 37.14456,20.3099166 37.13364,20.0508984 C38.25602,19.2145776 39.22986,18.1660173 40,16.9686565 C38.96988,17.433014 37.86262,17.7414195 36.70076,17.8707862 C37.8867,17.1409032 38.79768,15.9727499 39.2265,14.571924 C38.11644,15.2450933 36.8871,15.7278445 35.57852,15.9784684 Z M35.57852,15.9784684" id="Icon" fill="#FFFFFF" sketch:type="MSShapeGroup"/>
        </g>
    </g>
</svg>