<?xml version="1.0" encoding="UTF-8" standalone="no"?>
<svg width="62px" height="62px" viewBox="0 0 62 62" version="1.1" xmlns="http://www.w3.org/2000/svg" xmlns:xlink="http://www.w3.org/1999/xlink" xmlns:sketch="http://www.bohemiancoding.com/sketch/ns">
    <title>triip_logo</title>
    <description>Created with Sketch (http://www.bohemiancoding.com/sketch)</description>
    <defs></defs>
    <g id="Page-1" stroke="none" stroke-width="1" fill="none" fill-rule="evenodd" sketch:type="MSPage">
        <g id="triip_114-copy" sketch:type="MSLayerGroup">
            <ellipse d="M30.7754032,61.75 C47.7721899,61.75 61.5508065,47.9267925 61.5508065,30.875 C61.5508065,13.8232075 47.7721899,0 30.7754032,0 C13.7786165,0 0,13.8232075 0,30.875 C0,47.9267925 13.7786165,61.75 30.7754032,61.75 Z M30.7754032,61.75" id="Oval-15" fill="#4BB7C0" sketch:type="MSShapeGroup" cx="30.7754032" cy="30.875" rx="30.7754032" ry="30.875"></ellipse>
            <path d="M37.893871,25.7715203 C39.7011472,23.395089 42.6331366,21.85 45.9428226,21.85 C51.4340921,21.85 55.8856452,26.1032946 55.8856452,31.35 C55.8856452,36.5967054 51.4340921,40.85 45.9428226,40.85 C42.6331366,40.85 39.7011472,39.304911 37.893871,36.9284797 L37.893871,46.1860627 C37.893871,46.1860627 37.893871,47.4999975 36.9469355,47.5 C36,47.5000019 36,46.1860627 36,46.1860627 L36,23.165222 C36,23.165222 36,21.8500019 36.9469355,21.85 C37.893871,21.8499981 37.893871,23.1654628 37.893871,23.1654628 L37.893871,25.7715203 L37.893871,25.7715203 Z M46.0489516,38.95 C50.4942651,38.95 54.0979032,35.5473643 54.0979032,31.35 C54.0979032,27.1526357 50.4942651,23.75 46.0489516,23.75 C41.6036382,23.75 38,27.1526357 38,31.35 C38,35.5473643 41.6036382,38.95 46.0489516,38.95 Z M32,22.8242385 L32,39.8767131 C32,39.8767131 32,40.8500014 32.9469355,40.85 C33.893871,40.8499981 33.893871,39.8767131 33.893871,39.8767131 L33.893871,22.8244169 C33.893871,22.8244169 33.893871,21.8499986 32.9469355,21.85 C32,21.8500014 32,22.8242385 32,22.8242385 Z M32.9469355,20.9 C33.4699135,20.9 33.893871,20.4746705 33.893871,19.95 C33.893871,19.4253295 33.4699135,19 32.9469355,19 C32.4239574,19 32,19.4253295 32,19.95 C32,20.4746705 32.4239574,20.9 32.9469355,20.9 Z M28,22.8242385 L28,39.8767131 C28,39.8767131 28,40.8500014 28.9469355,40.85 C29.893871,40.8499981 29.893871,39.8767131 29.893871,39.8767131 L29.893871,22.8244169 C29.893871,22.8244169 29.893871,21.8499986 28.9469355,21.85 C28,21.8500014 28,22.8242385 28,22.8242385 Z M28.9469355,20.9 C29.4699135,20.9 29.893871,20.4746705 29.893871,19.95 C29.893871,19.4253295 29.4699135,19 28.9469355,19 C28.4239574,19 28,19.4253295 28,19.95 C28,20.4746705 28.4239574,20.9 28.9469355,20.9 Z M16.9824376,21.85 C16,21.8500003 16,22.8221019 16,22.8221019 L16,39.875519 C16,39.875519 16,40.85 16.9824376,40.85 C17.9648751,40.85 17.9648751,39.875519 17.9648751,39.875519 L17.9648751,25.2507507 C17.9648751,25.2507507 19.8668488,24.279839 22.4510242,24.2798383 C23.1179085,24.2798383 24.6496959,25.1001534 24.6496959,25.1001534 C24.6496959,25.1001534 25.7112695,25.783155 26.2525653,24.9555735 C26.7938611,24.127992 25.8195786,23.3512146 25.8195786,23.3512146 C25.8195786,23.3512146 24.1348597,22.332651 22.6042902,22.2891826 C19.1125072,22.1900161 17.9648751,23.3512146 17.9648751,23.3512146 L17.9648751,22.8221019 C17.9648751,22.8221019 17.9648751,21.8499997 16.9824376,21.85 Z M8,18.0653348 L8,31.3701877 L8,39.8806122 C8,39.8806122 8,40.85 9.01977667,40.85 C10.0395533,40.85 10.0395533,39.8806122 10.0395533,39.8806122 L10.0395533,24.4014116 L13.6087717,24.3704082 C13.6087717,24.3704082 14.6285484,24.3859098 14.6285484,23.4010204 C14.6285484,22.416131 13.6086488,22.4316327 13.6086488,22.4316327 L10.0395533,22.416131 L10.0395533,18.073204 C10.0395533,18.073204 10.0395533,17.0999995 9.01977667,17.1 C8,17.1000005 8,18.0653348 8,18.0653348 Z M8,18.0653348" id="triip" fill="#FFFFFF" sketch:type="MSShapeGroup"></path>
        </g>
    </g>
</svg>